<?xml version="1.0" standalone="no"?>
<svg xmlns="http://www.w3.org/2000/svg" viewBox="0 0 177.136 52" width="177.136" height="52"><rect fill="none" stroke="#ff6506" stroke-width="3" width="174.136" height="49" x="1.5" y="1.5"></rect><g fill="#00005f" color="#00005f" transform="translate(12, 11.999999999999998) scale(0.5490197)"><svg width="51.0" height="51.0" x="0.0" y="0.0" viewBox="0 0 51 51"><path fill="currentColor" fill-rule="evenodd" d="M45.003 46.574c-.674.717-1.56 1.602-2.065 1.813-.295.126-.632.21-.927.042-.843-.464-.042-1.265-.042-1.265s.505-.632 1.053-1.517c1.35-1.98 1.35-4.257-1.559-1.813-4.13 3.541-8.978 5.648-10.958 6.365-.465.169-1.729.548-1.982-.042-.253-.506.885-1.011 1.35-1.18 1.39-.506 4.593-1.855 7.754-4.005.38-.252.085-.421-.295-.168-3.456 2.318-7.418 3.878-9.104 4.468-.421.169-1.517.506-1.854-.042-.338-.548.759-1.012 1.138-1.138 1.517-.548 5.352-2.066 8.683-4.258.252-.21.041-.463-.422-.21-2.614 1.813-5.395 2.95-6.828 3.456-.506.21-1.56.464-1.855-.084-.295-.506.717-.97 1.222-1.138 1.18-.421 3.414-1.391 5.648-2.782.169-.085.085-.548-.379-.253-1.56 1.011-2.908 1.602-2.993 1.644 0 0-1.011.421-1.517.084-.463-.337.295-.759.927-1.095.843-.38 9.569-4.974 8.894-11.634-.38-3.625-1.854-5.269-4.805-8.556l-8.81-8.81c-4.93 5.059-8.808 8.936-8.808 8.936-2.95 3.288-4.426 4.932-4.805 8.557-.675 6.66 8.05 11.253 8.893 11.633.632.295 1.433.758.927 1.095-.506.338-1.517-.083-1.517-.083-.127-.043-1.475-.633-2.993-1.645-.505-.295-.548.127-.379.253 2.234 1.392 4.468 2.318 5.648 2.782.506.211 1.517.633 1.222 1.138-.295.548-1.306.295-1.854.084-1.391-.505-4.173-1.643-6.828-3.455-.464-.295-.675-.043-.422.21 3.288 2.192 7.165 3.71 8.683 4.257.38.126 1.433.59 1.138 1.138-.337.548-1.433.211-1.855.042-1.644-.59-5.648-2.15-9.104-4.467-.38-.254-.674-.127-.295.168 3.161 2.15 6.322 3.499 7.755 4.004.464.169 1.602.675 1.35 1.18-.296.59-1.518.211-1.982.042-1.939-.716-6.786-2.865-10.958-6.364-2.909-2.487-2.909-.21-1.56 1.813.59.884 1.054 1.475 1.054 1.517 0 0 .8.8-.042 1.264-.295.17-.633.084-.928-.042-.505-.21-1.348-1.096-2.065-1.812-2.655-2.993-8.683-11.043-3.54-21.454 2.15-4.341 6.828-8.851 6.828-8.851l9.146-9.105L25.278 0l7.291 7.291 9.147 9.105s4.678 4.51 6.828 8.85c5.142 10.412-.885 18.462-3.54 21.328m-19.726-1.728S9.26 32.918 16.426 26.975c2.36-1.939 6.576-1.011 8.852.927 2.276-1.938 6.448-2.866 8.85-.927 7.166 5.943-8.85 17.871-8.85 17.871"></path></svg></g><path fill="#00005f" fill-rule="nonzero" d="M13.32 14.59L13.32 9.41L15.02 9.41L15.02 17.81L13.46 17.81L13.46 16.39Q12.50 17.16 11.22 17.56Q9.94 17.95 8.47 17.95L8.47 17.95Q6.22 17.95 4.28 16.94Q2.35 15.94 1.18 14.02Q0 12.10 0 9.46L0 9.46Q0 7.01 1.15 5.05Q2.30 3.10 4.32 1.98Q6.34 0.86 8.88 0.86L8.88 0.86Q10.80 0.86 12.41 1.48Q14.02 2.09 15.12 3.29L15.12 3.29L14.02 4.42Q12.02 2.45 8.95 2.45L8.95 2.45Q6.91 2.45 5.27 3.35Q3.62 4.25 2.69 5.86Q1.75 7.46 1.75 9.46L1.75 9.46Q1.75 11.59 2.70 13.16Q3.65 14.74 5.22 15.56Q6.79 16.39 8.59 16.39L8.59 16.39Q9.91 16.39 11.15 15.95Q12.38 15.50 13.32 14.59L13.32 14.59ZM21.31 7.66Q21.91 6.38 23.10 5.74Q24.29 5.09 26.04 5.09L26.04 5.09L26.04 6.74L25.63 6.72Q23.64 6.72 22.51 7.94Q21.38 9.17 21.38 11.38L21.38 11.38L21.38 17.81L19.68 17.81L19.68 5.18L21.31 5.18L21.31 7.66ZM38.81 5.18L40.51 5.18L40.51 17.81L38.88 17.81L38.88 15.31Q38.11 16.58 36.85 17.26Q35.59 17.93 34.01 17.93L34.01 17.93Q32.23 17.93 30.79 17.11Q29.35 16.30 28.54 14.83Q27.72 13.37 27.72 11.50L27.72 11.50Q27.72 9.62 28.54 8.16Q29.35 6.70 30.79 5.89Q32.23 5.09 34.01 5.09L34.01 5.09Q35.54 5.09 36.78 5.72Q38.02 6.36 38.81 7.58L38.81 7.58L38.81 5.18ZM34.15 16.42Q35.47 16.42 36.54 15.80Q37.61 15.19 38.22 14.06Q38.83 12.94 38.83 11.50L38.83 11.50Q38.83 10.06 38.22 8.93Q37.61 7.80 36.54 7.19Q35.47 6.58 34.15 6.58L34.15 6.58Q32.81 6.58 31.74 7.19Q30.67 7.80 30.06 8.93Q29.45 10.06 29.45 11.50L29.45 11.50Q29.45 12.94 30.06 14.06Q30.67 15.19 31.74 15.80Q32.81 16.42 34.15 16.42L34.15 16.42ZM48.65 17.93Q47.11 17.93 45.71 17.48Q44.30 17.04 43.51 16.37L43.51 16.37L44.28 15.02Q45.07 15.65 46.27 16.04Q47.47 16.44 48.77 16.44L48.77 16.44Q50.50 16.44 51.32 15.90Q52.15 15.36 52.15 14.38L52.15 14.38Q52.15 13.68 51.70 13.28Q51.24 12.89 50.54 12.68Q49.85 12.48 48.70 12.29L48.70 12.29Q47.16 12 46.22 11.70Q45.29 11.40 44.63 10.68Q43.97 9.96 43.97 8.69L43.97 8.69Q43.97 7.10 45.29 6.10Q46.61 5.09 48.96 5.09L48.96 5.09Q50.18 5.09 51.41 5.41Q52.63 5.74 53.42 6.26L53.42 6.26L52.68 7.63Q51.12 6.55 48.96 6.55L48.96 6.55Q47.33 6.55 46.50 7.13Q45.67 7.70 45.67 8.64L45.67 8.64Q45.67 9.36 46.14 9.79Q46.61 10.22 47.30 10.43Q48 10.63 49.22 10.85L49.22 10.85Q50.74 11.14 51.65 11.42Q52.56 11.71 53.21 12.41Q53.86 13.10 53.86 14.33L53.86 14.33Q53.86 15.98 52.48 16.96Q51.10 17.93 48.65 17.93L48.65 17.93ZM60.38 17.93Q58.85 17.93 57.44 17.48Q56.04 17.04 55.25 16.37L55.25 16.37L56.02 15.02Q56.81 15.65 58.01 16.04Q59.21 16.44 60.50 16.44L60.50 16.44Q62.23 16.44 63.06 15.90Q63.89 15.36 63.89 14.38L63.89 14.38Q63.89 13.68 63.43 13.28Q62.98 12.89 62.28 12.68Q61.58 12.48 60.43 12.29L60.43 12.29Q58.90 12 57.96 11.70Q57.02 11.40 56.36 10.68Q55.70 9.96 55.70 8.69L55.70 8.69Q55.70 7.10 57.02 6.10Q58.34 5.09 60.70 5.09L60.70 5.09Q61.92 5.09 63.14 5.41Q64.37 5.74 65.16 6.26L65.16 6.26L64.42 7.63Q62.86 6.55 60.70 6.55L60.70 6.55Q59.06 6.55 58.24 7.13Q57.41 7.70 57.41 8.64L57.41 8.64Q57.41 9.36 57.88 9.79Q58.34 10.22 59.04 10.43Q59.74 10.63 60.96 10.85L60.96 10.85Q62.47 11.14 63.38 11.42Q64.30 11.71 64.94 12.41Q65.59 13.10 65.59 14.33L65.59 14.33Q65.59 15.98 64.21 16.96Q62.83 17.93 60.38 17.93L60.38 17.93ZM76.39 17.95Q73.90 17.95 71.89 16.85Q69.89 15.74 68.75 13.79Q67.61 11.83 67.61 9.41L67.61 9.41Q67.61 6.98 68.75 5.03Q69.89 3.07 71.90 1.97Q73.92 0.86 76.42 0.86L76.42 0.86Q78.29 0.86 79.87 1.49Q81.46 2.11 82.56 3.31L82.56 3.31L81.43 4.44Q79.46 2.45 76.46 2.45L76.46 2.45Q74.47 2.45 72.84 3.36Q71.21 4.27 70.28 5.86Q69.36 7.44 69.36 9.41L69.36 9.41Q69.36 11.38 70.28 12.96Q71.21 14.54 72.84 15.46Q74.47 16.37 76.46 16.37L76.46 16.37Q79.49 16.37 81.43 14.35L81.43 14.35L82.56 15.48Q81.46 16.68 79.86 17.32Q78.26 17.95 76.39 17.95L76.39 17.95ZM85.99 17.81L85.99 5.18L87.70 5.18L87.70 17.81L85.99 17.81ZM86.86 2.42Q86.33 2.42 85.97 2.06Q85.61 1.70 85.61 1.20L85.61 1.20Q85.61 0.72 85.97 0.36Q86.33 0 86.86 0L86.86 0Q87.38 0 87.74 0.35Q88.10 0.70 88.10 1.18L88.10 1.18Q88.10 1.70 87.74 2.06Q87.38 2.42 86.86 2.42L86.86 2.42ZM98.06 15.82L98.66 17.04Q98.18 17.47 97.49 17.70Q96.79 17.93 96.02 17.93L96.02 17.93Q94.25 17.93 93.29 16.97Q92.33 16.01 92.33 14.26L92.33 14.26L92.33 2.42L94.03 2.42L94.03 5.18L97.85 5.18L97.85 6.62L94.03 6.62L94.03 14.16Q94.03 15.29 94.58 15.88Q95.14 16.46 96.19 16.46L96.19 16.46Q97.34 16.46 98.06 15.82L98.06 15.82ZM111.43 5.18L113.14 5.18L113.14 16.27Q113.14 19.49 111.67 21.04Q110.21 22.58 107.26 22.58L107.26 22.58Q105.60 22.58 104.12 22.07Q102.65 21.55 101.74 20.64L101.74 20.64L102.60 19.34Q103.42 20.16 104.62 20.62Q105.82 21.07 107.18 21.07L107.18 21.07Q109.37 21.07 110.40 19.96Q111.43 18.84 111.43 16.49L111.43 16.49L111.43 15.02Q110.76 16.13 109.60 16.73Q108.43 17.33 106.97 17.33L106.97 17.33Q104.50 17.33 103.07 15.95Q101.64 14.57 101.64 11.90L101.64 11.90L101.64 5.18L103.34 5.18L103.34 11.74Q103.34 13.73 104.33 14.76Q105.31 15.79 107.14 15.79L107.14 15.79Q109.13 15.79 110.28 14.58Q111.43 13.37 111.43 11.21L111.43 11.21L111.43 5.18Z" transform="translate(52 17.096)"></path></svg>